<?xml version="1.0" standalone="no"?>
<!DOCTYPE svg PUBLIC "-//W3C//DTD SVG 20010904//EN"
 "http://www.w3.org/TR/2001/REC-SVG-20010904/DTD/svg10.dtd">
<svg version="1.0" xmlns="http://www.w3.org/2000/svg"
 width="512.000000pt" height="512.000000pt" viewBox="0 0 512.000000 512.000000"
 preserveAspectRatio="xMidYMid meet">
<metadata>
Created by potrace 1.11, written by Peter Selinger 2001-2013
</metadata>
<g transform="translate(0.000000,512.000000) scale(0.100000,-0.100000)"
fill="#000000" stroke="none">
<path d="M731 5105 c-229 -50 -408 -161 -549 -342 -51 -65 -118 -200 -149
-298 l-28 -90 0 -1810 0 -1810 23 -80 c48 -169 120 -293 237 -410 119 -120
250 -193 426 -240 l94 -24 1795 2 1795 2 90 28 c320 100 543 330 627 647 l23
85 0 1805 0 1805 -28 88 c-98 313 -322 535 -637 629 l-75 23 -1790 2 c-1498 1
-1800 -1 -1854 -12z"/>
</g>
</svg>
