<svg width="300" height="140" viewBox="0 0 300 140" fill="none" xmlns="http://www.w3.org/2000/svg">
<path d="M62.5528 49.6364H53.1096V37.0909H36.4391V49.6364H29.5187V61.9091H36.4391V87.375C36.3369 97.9773 43.2232 103.295 54.9846 102.75C59.0073 102.545 61.905 101.727 63.5073 101.25L60.9846 89.2159C60.2687 89.3864 58.5982 89.7273 57.3369 89.7273C54.6437 89.7273 53.1096 88.6364 53.1096 85.5341V61.9091H62.5528V49.6364ZM94.9732 102.989C108.712 102.989 117.746 96.3409 119.655 86.0455L104.348 85.6023C103.053 89.0795 99.6437 90.9545 95.28 90.9545C88.8709 90.9545 84.9164 86.6932 84.9164 80.2841V79.8409H119.825V75.6818C119.825 58.4318 109.325 48.9545 94.4619 48.9545C78.6437 48.9545 68.4846 59.7955 68.4846 76.0227C68.4846 92.7955 78.5073 102.989 94.9732 102.989ZM84.9164 70.1591C85.155 64.9432 89.28 60.9886 94.8028 60.9886C100.291 60.9886 104.246 64.8068 104.314 70.1591H84.9164ZM137.561 102H155.425L163.607 71.4886H164.186L172.368 102H190.198L203.868 49.6364H187.129L180.277 82.9432H179.834L172.061 49.6364H155.732L148.164 83.1818H147.72L140.664 49.6364H123.925L137.561 102ZM233.877 102.989C250.343 102.989 260.331 92.1136 260.331 75.9886C260.331 59.8295 250.343 48.9545 233.877 48.9545C217.411 48.9545 207.422 59.8295 207.422 75.9886C207.422 92.1136 217.411 102.989 233.877 102.989ZM233.979 90.4091C227.808 90.4091 224.399 84.5455 224.399 75.8864C224.399 67.1932 227.808 61.2955 233.979 61.2955C239.945 61.2955 243.354 67.1932 243.354 75.8864C243.354 84.5455 239.945 90.4091 233.979 90.4091Z" fill="white"/>
<path d="M269.254 38.9181C264.814 33.598 259.354 29.3379 253.237 26.4209C247.12 23.504 240.486 21.9969 233.775 22C227.065 22.0031 220.432 23.5162 214.317 26.4387C208.202 29.3613 202.746 33.6264 198.31 38.9506L205.407 45.5605C208.956 41.3011 213.321 37.8891 218.213 35.551C223.104 33.2129 228.411 32.0025 233.779 32C239.148 31.9975 244.455 33.2032 249.349 35.5367C254.242 37.8703 258.61 41.2784 262.162 45.5345L269.254 38.9181Z" fill="white"/>
<path d="M287.381 28.8916C281.245 19.9504 273.196 12.6715 263.89 7.65006C254.584 2.6286 244.286 0.00714161 233.838 1.45687e-05C223.391 -0.00711248 213.09 2.60029 203.778 7.60905C194.465 12.6178 186.407 19.8857 180.26 28.8185L190.967 37.0548C195.885 29.9086 202.331 24.0942 209.781 20.0872C217.231 16.0802 225.472 13.9943 233.83 14C242.188 14.0057 250.426 16.1029 257.871 20.12C265.316 24.1372 271.755 29.9603 276.664 37.1133L287.381 28.8916Z" fill="white"/>
</svg>
